<svg xmlns="http://www.w3.org/2000/svg" viewBox="1125.101 1197 49.899 49.9"><path d="M1175 1224.848v-5.696a2.022 2.022 0 0 0-2.022-2.022h-2.179a2.02 2.02 0 0 1-1.918-1.385 19.756 19.756 0 0 0-1.106-2.669 2.022 2.022 0 0 1 .375-2.339l1.542-1.541c.79-.79.79-2.07 0-2.86l-4.028-4.028c-.79-.79-2.07-.79-2.86 0l-1.541 1.542a2.022 2.022 0 0 1-2.34.375 19.756 19.756 0 0 0-2.668-1.107 2.02 2.02 0 0 1-1.385-1.917v-2.18a2.022 2.022 0 0 0-2.022-2.021h-5.696a2.022 2.022 0 0 0-2.022 2.022v2.179a2.02 2.02 0 0 1-1.385 1.918c-.922.305-1.813.675-2.669 1.106a2.022 2.022 0 0 1-2.339-.375l-1.541-1.542c-.79-.79-2.07-.79-2.86 0l-4.028 4.028c-.79.79-.79 2.07 0 2.86l1.542 1.541c.617.617.767 1.56.375 2.34-.43.855-.801 1.747-1.107 2.668a2.02 2.02 0 0 1-1.186 1.248c-.229.089-.375.237-.63.237h-2.18a2.022 2.022 0 0 0-2.021 2.022v5.496c0 1.116.905 2.022 2.022 2.022h2.178c.871 0 1.644.658 1.918 1.485.305.921.676 1.813 1.106 2.669.392.78.242 1.722-.375 2.339l-1.44 1.541c-.79.79-.79 2.07 0 2.86l3.826 3.827c.79.79 2.07.79 2.86 0l1.541-1.542a2.022 2.022 0 0 1 2.34-.375c.855.43 1.948.902 2.87 1.207a2.02 2.02 0 0 1 1.384 1.918v2.179c0 1.116.905 2.021 2.022 2.021h5.395a2.022 2.022 0 0 0 2.022-2.021v-2.18c0-.255.148-.401.237-.63a2.02 2.02 0 0 1 1.248-1.186 19.756 19.756 0 0 0 2.669-1.107 2.022 2.022 0 0 1 2.339.375l1.541 1.542c.79.79 2.07.79 2.86 0l4.028-4.028c.79-.79.79-2.07 0-2.86l-1.542-1.541a2.022 2.022 0 0 1-.375-2.34c.43-.855.802-1.747 1.107-2.668a2.02 2.02 0 0 1 1.917-1.385h2.18a2.022 2.022 0 0 0 2.021-2.022Z" fill="#b6c4cf" fill-rule="evenodd" data-name="Vector"/></svg>